<svg width="79" height="49" viewBox="0 0 79 49" fill="none" xmlns="http://www.w3.org/2000/svg">
<path d="M10.7006 24.1524L10.3643 24.5L10.7006 24.8476L28.5343 43.2833L23.7 48.2809L0.695658 24.5L23.7 0.719139L28.5343 5.71667L10.7006 24.1524ZM78.3043 24.5L55.3 48.2809L50.4657 43.2833L68.2994 24.8476L68.6357 24.5L68.2994 24.1524L50.4657 5.71667L55.3 0.719139L78.3043 24.5Z" fill="white" style="mix-blend-mode:soft-light"/>
<path d="M10.7006 24.1524L10.3643 24.5L10.7006 24.8476L28.5343 43.2833L23.7 48.2809L0.695658 24.5L23.7 0.719139L28.5343 5.71667L10.7006 24.1524ZM78.3043 24.5L55.3 48.2809L50.4657 43.2833L68.2994 24.8476L68.6357 24.5L68.2994 24.1524L50.4657 5.71667L55.3 0.719139L78.3043 24.5Z" stroke="white"/>
</svg>
