<svg width="185" height="33" viewBox="0 0 185 33" fill="none" xmlns="http://www.w3.org/2000/svg">
<path fill-rule="evenodd" clip-rule="evenodd" d="M0 4.75L4 9.75C9 13.75 18 23.75 26 25.75C35 26.75 44 21.75 53 16.75C62 11.75 70 8.75 79 10.75C88 11.75 97 19.75 106 18.75C115 17.75 123 8.75 132 3.75C141 -1.25 150 -1.25 159 3.75C167 8.75 176 17.75 181 22.75L185 26.75V32.75H181C176 32.75 167 32.75 159 32.75C150 32.75 141 32.75 132 32.75C123 32.75 115 32.75 106 32.75C97 32.75 88 32.75 79 32.75C70 32.75 62 32.75 53 32.75C44 32.75 35 32.75 26 32.75C18 32.75 9 32.75 4 32.75H0V4.75Z" fill="#AD6CEA"/>
</svg>
